<?xml version="1.0" standalone="no"?>
<!DOCTYPE svg PUBLIC "-//W3C//DTD SVG 20010904//EN"
 "http://www.w3.org/TR/2001/REC-SVG-20010904/DTD/svg10.dtd">
<svg version="1.0" xmlns="http://www.w3.org/2000/svg"
 width="360.000000pt" height="360.000000pt" viewBox="0 0 360.000000 360.000000"
 preserveAspectRatio="xMidYMid meet">
<metadata>
Created by potrace 1.14, written by Peter Selinger 2001-2017
</metadata>
<g transform="translate(0.000000,360.000000) scale(0.100000,-0.100000)"
fill="#000000" stroke="none">
<path d="M1433 3240 c-326 -57 -578 -206 -805 -477 -75 -91 -82 -94 -223 -114
-44 -7 -84 -16 -89 -20 -13 -11 77 -98 114 -111 l29 -9 -28 -62 c-16 -34 -53
-95 -83 -135 -110 -146 -200 -351 -214 -485 -8 -76 5 -89 34 -36 22 42 133
191 138 186 2 -2 -3 -38 -11 -80 -23 -121 -29 -253 -16 -364 23 -195 75 -327
160 -406 l46 -42 6 116 c4 64 11 124 16 133 8 15 13 12 35 -21 43 -65 119
-143 178 -183 l57 -39 58 -168 c76 -224 105 -283 172 -348 60 -59 206 -138
323 -173 325 -99 695 -97 1005 4 184 61 323 155 387 265 14 24 56 128 94 232
l68 187 67 49 c58 43 151 140 176 186 8 14 16 13 66 -10 63 -27 225 -71 233
-62 3 3 -8 31 -24 63 -62 123 -101 360 -83 497 36 265 -28 558 -171 786 -230
368 -551 585 -958 647 -100 15 -132 16 -250 6 -91 -8 -158 -9 -205 -2 -101 14
-186 11 -302 -10z m397 -14 c30 0 100 4 155 8 278 23 637 -105 866 -309 298
-266 464 -624 458 -990 l-1 -70 -9 60 c-26 181 -33 217 -56 295 -39 137 -104
260 -179 340 -68 72 -130 118 -142 105 -4 -4 4 -14 18 -23 14 -9 57 -48 96
-87 57 -56 81 -91 117 -166 76 -158 103 -275 127 -559 22 -271 43 -388 85
-492 16 -39 20 -58 12 -58 -26 0 -175 53 -228 81 -67 36 -151 108 -194 167
l-32 44 15 71 c20 93 21 347 3 447 -38 214 -127 411 -254 565 -46 56 -40 16 7
-46 106 -140 176 -294 212 -459 15 -67 19 -125 18 -280 0 -177 -3 -204 -26
-291 -15 -53 -35 -116 -46 -140 l-19 -44 -21 91 c-48 208 -195 604 -224 604
-6 0 -6 -33 -1 -82 10 -98 7 -318 -4 -329 -12 -11 -146 26 -155 42 -4 8 -30
67 -58 131 -29 64 -79 165 -112 225 -48 87 -70 143 -113 286 -29 98 -55 180
-59 184 -20 21 -12 -23 33 -174 27 -92 79 -269 115 -393 35 -124 67 -232 71
-240 5 -13 -11 -16 -111 -17 -64 -1 -121 -6 -126 -11 -18 -18 130 -82 207 -90
l68 -7 38 -114 38 -113 -52 6 c-129 18 -273 99 -400 228 -111 114 -179 218
-246 381 -17 44 -32 23 -26 -36 26 -223 127 -485 276 -712 53 -82 49 -84 -51
-19 -82 52 -187 149 -248 227 -51 67 -132 188 -132 199 0 4 13 15 29 24 38 23
31 34 -22 34 l-42 0 -32 73 c-114 253 -173 513 -173 760 0 78 -4 127 -10 127
-6 0 -10 -48 -10 -124 l0 -125 -54 -103 c-199 -377 -313 -799 -304 -1126 l3
-114 -31 38 c-79 93 -153 251 -181 384 -21 103 -24 344 -5 435 23 104 55 196
99 284 23 47 40 87 37 90 -9 9 -34 -28 -69 -104 -74 -156 -105 -300 -105 -479
0 -184 27 -315 95 -461 42 -92 57 -135 44 -135 -20 0 -99 93 -125 147 -45 96
-68 288 -45 386 12 49 -3 57 -29 15 -64 -105 -137 -354 -142 -484 l-3 -76 -33
39 c-43 49 -87 142 -109 229 -25 100 -25 438 0 543 11 44 14 78 9 83 -9 9 -92
-82 -141 -156 -24 -36 -26 -38 -29 -17 -5 34 42 175 88 265 64 124 127 215
209 297 70 70 80 76 128 83 52 7 80 16 141 49 60 33 23 36 -39 4 -54 -28 -72
-32 -138 -31 -85 0 -135 20 -184 72 l-28 29 78 13 c101 16 196 45 253 77 54
31 121 93 114 105 -3 5 -25 -9 -49 -31 -44 -40 -125 -88 -125 -73 0 13 141
167 203 221 166 146 386 249 622 292 80 15 125 17 220 12 66 -3 145 -6 175 -7z
m-1321 -733 c0 -5 -14 -19 -31 -32 l-30 -24 16 31 c14 28 47 45 45 25z m798
-238 c23 -130 104 -388 148 -475 14 -27 25 -52 25 -55 0 -3 -35 -5 -79 -5 -95
0 -229 -22 -308 -51 -32 -12 -61 -24 -65 -28 -4 -3 87 -7 201 -9 173 -3 215
-1 246 12 21 9 39 15 39 14 1 -2 32 -50 71 -108 78 -119 216 -264 313 -329 70
-47 172 -96 172 -82 0 5 -29 52 -64 105 -142 212 -250 464 -281 656 l-7 45 37
-70 c58 -110 121 -193 222 -292 51 -51 88 -95 83 -98 -5 -3 -15 -16 -21 -27
l-12 -21 28 21 c35 28 36 28 91 -7 l46 -28 -55 -31 c-73 -41 -81 -57 -15 -28
109 49 113 42 25 -44 -44 -44 -78 -82 -76 -85 3 -3 25 2 49 10 23 8 45 15 49
15 3 0 6 -44 7 -98 0 -130 34 -208 116 -269 28 -20 43 -23 119 -23 l87 0 46
56 c94 114 98 214 18 377 -6 12 103 -1 160 -19 70 -22 72 -28 48 -134 -11 -51
-19 -94 -17 -96 2 -2 29 31 61 74 32 42 56 68 53 57 -15 -53 -18 -88 -9 -94
11 -7 -107 -336 -145 -401 -158 -269 -710 -414 -1198 -315 -267 54 -456 153
-550 289 -47 69 -177 414 -162 431 18 19 59 10 79 -18 11 -15 24 -25 28 -22 5
3 11 1 15 -5 3 -5 11 -10 16 -10 7 0 8 42 3 124 l-7 124 29 5 c16 3 53 9 82
12 l53 7 -26 -51 c-57 -108 -41 -235 41 -335 l46 -56 90 0 89 0 48 45 c72 67
95 127 95 247 1 54 4 98 7 98 4 0 26 -7 49 -15 24 -8 45 -13 48 -10 3 3 -31
41 -76 85 -89 87 -85 93 28 44 53 -23 54 -23 30 -3 -35 30 -113 65 -192 86
-58 15 -78 16 -161 5 -79 -10 -173 -35 -251 -67 -17 -8 -18 -4 -11 56 21 193
99 464 202 698 55 127 113 241 123 241 3 0 15 -56 27 -125z m981 -280 c28 -55
67 -137 86 -182 30 -71 33 -83 18 -83 -47 1 -61 12 -76 64 -9 28 -33 111 -55
185 -22 74 -36 130 -32 125 5 -5 31 -54 59 -109z m391 -130 c53 -142 105 -320
121 -415 7 -41 16 -79 21 -84 7 -8 39 47 65 113 13 33 13 29 8 -59 -3 -52 -9
-100 -13 -107 -4 -9 -17 -5 -46 12 -79 47 -171 93 -225 110 -30 10 -56 18 -57
19 -2 1 6 33 16 72 11 38 22 81 25 97 5 19 13 27 29 28 l22 0 -21 15 c-19 13
-20 19 -11 87 5 39 6 117 3 172 -6 117 -2 114 63 -60z m-2044 -505 c22 -70 35
-96 81 -155 l36 -48 -33 24 c-49 35 -103 91 -153 159 l-45 60 19 66 c11 36 30
93 42 125 l23 60 6 -118 c4 -65 15 -143 24 -173z m1808 268 c8 -29 5 -30 -36
-23 -23 5 -37 14 -40 26 -4 16 0 19 33 19 30 0 39 -4 43 -22z m125 -20 c-5
-24 -18 -74 -30 -113 l-21 -70 -23 92 c-12 51 -25 102 -29 113 -6 19 -2 20 53
20 l60 0 -10 -42z m-109 -46 c5 -9 12 -34 16 -55 7 -34 5 -37 -16 -37 -35 0
-44 10 -62 63 l-16 47 34 0 c23 0 38 -6 44 -18z m619 -167 c17 -11 32 -24 32
-30 -1 -20 -107 -136 -165 -179 -32 -25 -61 -43 -63 -42 -2 2 4 44 12 92 8 49
18 121 21 159 3 39 8 85 11 104 l5 33 57 -59 c31 -33 72 -68 90 -78z m-1854
-97 c33 -47 8 -140 -45 -168 -50 -27 -95 34 -78 108 16 73 90 108 123 60z
m1112 1 c43 -47 8 -160 -53 -175 -21 -6 -31 -1 -50 20 -68 79 34 232 103 155z
m-1017 -272 c41 -21 49 -44 24 -68 -43 -44 -183 -29 -183 19 0 19 23 45 50 55
27 10 85 7 109 -6z m1161 -12 c31 -28 25 -54 -17 -72 -74 -30 -186 8 -157 55
28 44 132 55 174 17z"/>
<path d="M1196 1574 c-33 -8 -61 -15 -62 -17 -1 -1 64 -2 144 -2 146 0 148 0
217 -33 38 -18 85 -45 105 -60 l35 -27 -23 32 c-30 42 -95 93 -140 109 -49 17
-201 16 -276 -2z"/>
<path d="M962 988 c-6 -6 -12 -19 -12 -27 0 -13 2 -13 16 1 9 9 15 21 13 27
-3 9 -8 8 -17 -1z"/>
<path d="M2680 987 c0 -8 7 -20 15 -27 12 -10 15 -10 15 3 0 8 -7 20 -15 27
-12 10 -15 10 -15 -3z"/>
<path d="M992 948 c-16 -16 -15 -28 3 -28 8 0 15 2 15 4 0 2 3 11 6 20 7 19
-7 21 -24 4z"/>
<path d="M2644 944 c3 -9 6 -18 6 -20 0 -2 7 -4 15 -4 18 0 19 12 3 28 -17 17
-31 15 -24 -4z"/>
<path d="M1050 904 c0 -14 4 -23 10 -19 6 3 10 15 10 26 0 10 -4 19 -10 19 -5
0 -10 -12 -10 -26z"/>
<path d="M2590 911 c0 -11 5 -23 10 -26 6 -4 10 5 10 19 0 14 -4 26 -10 26 -5
0 -10 -9 -10 -19z"/>
<path d="M1820 850 c0 -5 5 -10 10 -10 6 0 10 5 10 10 0 6 -4 10 -10 10 -5 0
-10 -4 -10 -10z"/>
<path d="M1683 607 c15 -46 279 -46 294 0 3 9 -5 9 -31 -2 -47 -20 -185 -20
-232 0 -26 11 -34 11 -31 2z"/>
</g>
</svg>
